<svg xmlns="http://www.w3.org/2000/svg" viewBox="0 0 500 500">
  <!-- Background Circle -->
  <circle cx="250" cy="250" r="240" fill="#0A2342" />
  <circle cx="250" cy="250" r="220" fill="#063F5C" />
  
  <!-- Seal Icon -->
  <g transform="translate(250, 250) scale(0.8)">
    <!-- Seal Body -->
    <ellipse cx="0" cy="0" rx="160" ry="140" fill="#E5E5E5" />
    <ellipse cx="0" cy="20" rx="140" ry="120" fill="#D4D4D4" />
    
    <!-- Seal Face -->
    <circle cx="0" cy="-50" r="80" fill="#F0F0F0" />
    
    <!-- Seal Eyes -->
    <circle cx="-30" cy="-60" r="15" fill="#0A2342" />
    <circle cx="30" cy="-60" r="15" fill="#0A2342" />
    <circle cx="-30" cy="-63" r="5" fill="white" />
    <circle cx="30" cy="-63" r="5" fill="white" />
    
    <!-- Seal Nose -->
    <ellipse cx="0" cy="-35" rx="25" ry="15" fill="#333333" />
    
    <!-- Seal Whiskers -->
    <line x1="-25" y1="-30" x2="-75" y2="-45" stroke="#999999" stroke-width="3" />
    <line x1="-25" y1="-30" x2="-80" y2="-30" stroke="#999999" stroke-width="3" />
    <line x1="-25" y1="-30" x2="-75" y2="-15" stroke="#999999" stroke-width="3" />
    
    <line x1="25" y1="-30" x2="75" y2="-45" stroke="#999999" stroke-width="3" />
    <line x1="25" y1="-30" x2="80" y2="-30" stroke="#999999" stroke-width="3" />
    <line x1="25" y1="-30" x2="75" y2="-15" stroke="#999999" stroke-width="3" />
    
    <!-- Seal Flippers -->
    <path d="M-120,30 Q-160,60 -140,110 Q-120,100 -100,80 Z" fill="#C4C4C4" />
    <path d="M120,30 Q160,60 140,110 Q120,100 100,80 Z" fill="#C4C4C4" />
  </g>
  
  <!-- Tech Elements -->
  <circle cx="250" cy="250" r="200" fill="none" stroke="#4CC9F0" stroke-width="4" stroke-dasharray="20,10" />
  
  <!-- Text -->
  <g transform="translate(250,400)">
    <text x="0" y="0" font-family="Arial, sans-serif" font-size="48" font-weight="bold" fill="#F0F0F0" text-anchor="middle">TECHZS</text>
    <text x="0" y="50" font-family="Arial, sans-serif" font-size="36" fill="#4CC9F0" text-anchor="middle">SEAL</text>
  </g>
  
  <!-- Digital Circuit Lines -->
  <path d="M50,250 L100,250 L120,230 L180,230 L200,250 L250,250" fill="none" stroke="#4CC9F0" stroke-width="3" />
  <path d="M450,250 L400,250 L380,270 L320,270 L300,250 L250,250" fill="none" stroke="#4CC9F0" stroke-width="3" />
</svg>
